# xmcd
# 
# Track frame offsets:
#     150
#     8219
#     26976
#     33598
#     44308
#     63055
#     80530
#     86572
#     108064
#     117773
#     133625
#     142177
#     164142
#     184416
#     188871
#     208811
#     213511
#     238820
# 
# Disc length: 3296
# 
# Revision: 0
# Processed by: cddbd v1.5.2PL0 Copyright (c) Steve Scherf et al.
# Submitted via: fre:ac v1.0.17
# 
DISCID=0a0cde12
DTITLE=Mem Shannon - A Cab Driver's Blues
DYEAR=1995
DGENRE=Blues
TTITLE0=5th Ward Horseman
TTITLE1=Play The Guitar Son
TTITLE2=$17.00 Brunette
TTITLE3=You Ain't Nothin' Nice
TTITLE4=My Baby's Been Watching TV
TTITLE5=Me And My Bed
TTITLE6=Ode To Benny Hill
TTITLE7=Taxicab Driver
TTITLE8=The Miserable Bastard
TTITLE9=One Hot Night
TTITLE10=Dick Tie Commandos
TTITLE11=The Boogie Man
TTITLE12=Maxine
TTITLE13=The Older Broad
TTITLE14=Got To Go
TTITLE15=Chantelle
TTITLE16=If This Ain't The Blues
TTITLE17=Food Drink And Music
EXTD=
EXTT0=
EXTT1=
EXTT2=
EXTT3=
EXTT4=
EXTT5=
EXTT6=
EXTT7=
EXTT8=
EXTT9=
EXTT10=
EXTT11=
EXTT12=
EXTT13=
EXTT14=
EXTT15=
EXTT16=
EXTT17=
PLAYORDER=
